<?xml version="1.0" encoding="UTF-8"?>
<svg xmlns="http://www.w3.org/2000/svg" xmlns:xlink="http://www.w3.org/1999/xlink" version="1.1" viewBox="0 0 173.56 33.35">
  <!-- Generator: Adobe Illustrator 29.0.0, SVG Export Plug-In . SVG Version: 2.1.0 Build 186)  -->
  <defs>
    <style>
      .st0 {
        fill-rule: evenodd;
      }

      .st0, .st1, .st2 {
        fill: #fff;
      }

      .st3 {
        fill: url(#linear-gradient);
        opacity: .45;
      }

      .st3, .st2 {
        mix-blend-mode: screen;
      }

      .st4 {
        isolation: isolate;
      }

      .st2 {
        opacity: .15;
      }

      .st5 {
        fill: #f4c63e;
      }
    </style>
    <linearGradient id="linear-gradient" x1="18.03" y1="17.76" x2="18.03" y2="3.77" gradientUnits="userSpaceOnUse">
      <stop offset="0" stop-color="#000"/>
      <stop offset=".25" stop-color="#231f20"/>
      <stop offset="1" stop-color="#fff"/>
    </linearGradient>
  </defs>
  <g class="st4">
    <g id="Layer_1">
      <g>
        <g>
          <circle class="st5" cx="18.03" cy="16.67" r="16.67" transform="translate(-2.08 30.77) rotate(-77.81)"/>
          <circle cx="18.03" cy="16.67" r="13.61" transform="translate(-5.55 23.52) rotate(-58.97)"/>
          <path class="st2" d="M18.03,28.42c-5.24,0-9.82-2.87-12.24-7.12,1.96,4.84,6.7,8.25,12.24,8.25s10.28-3.41,12.24-8.25c-2.42,4.25-6.99,7.12-12.24,7.12Z"/>
          <ellipse class="st3" cx="18.03" cy="10.77" rx="10.09" ry="6.99"/>
          <g>
            <path class="st1" d="M9.35,23.54l.48-.43c-.15-.04-.27-.12-.35-.22-.08-.11-.12-.25-.12-.41,0-.15.03-.3.1-.44.07-.14.16-.28.29-.4.12-.12.24-.21.37-.27.12-.06.25-.09.38-.09.21,0,.38.06.5.18.13.12.19.28.19.47,0,.17-.04.33-.13.5-.08.16-.2.31-.36.44-.1.09-.21.15-.32.2-.11.04-.22.07-.33.07h-.06s-.03,0-.04,0c-.01,0-.02,0-.03.02l-.15.12s.05,0,.08,0c.03,0,.05,0,.05,0,.1,0,.23.02.39.07.16.05.27.07.33.07.07,0,.13-.02.2-.05.06-.04.13-.09.21-.17l.04.04c-.11.13-.22.23-.32.28-.1.05-.21.08-.33.08-.1,0-.23-.02-.39-.07-.16-.04-.27-.07-.33-.07-.05,0-.1,0-.14.03-.05.02-.1.05-.17.09l-.03-.04ZM10.5,21.36c-.1,0-.19.03-.28.08-.09.05-.18.13-.26.24-.1.13-.17.27-.23.43-.05.16-.08.31-.08.47s.04.27.11.35c.07.08.17.13.29.13.09,0,.19-.03.28-.08.09-.05.17-.13.25-.22.1-.14.18-.28.23-.45.06-.16.09-.32.09-.47s-.03-.27-.1-.36c-.07-.08-.17-.12-.29-.12Z"/>
            <path class="st1" d="M11.31,22v-.05c.12-.01.24-.03.35-.06.03,0,.05-.01.05-.01.01,0,.02,0,.03,0,0,0,0,0,0,.01,0,0,0,.02,0,.03,0,.01,0,.02,0,.04l-.2.71s-.02.09-.03.13c0,.04-.01.06-.01.08,0,.03,0,.05.02.06s.03.02.06.02c.05,0,.11-.03.18-.09.07-.06.15-.15.23-.28.07-.09.12-.2.17-.31.05-.11.09-.24.12-.37h.2l-.22.82s-.02.08-.02.11c0,.03,0,.05,0,.07,0,.02,0,.03.01.04,0,0,.02.01.04.01.03,0,.06-.02.09-.05.04-.03.08-.08.12-.15l.04.04c-.06.1-.13.18-.2.24-.07.05-.13.08-.2.08-.04,0-.08-.01-.1-.03-.02-.02-.03-.06-.03-.1,0-.03,0-.06,0-.09,0-.03.02-.07.03-.12l.08-.28c-.14.22-.26.37-.37.47-.11.1-.21.15-.3.15-.05,0-.09-.02-.12-.05-.03-.03-.04-.07-.04-.13,0-.03,0-.07.01-.11,0-.04.02-.1.05-.19l.12-.42s.01-.05.01-.08c0-.03,0-.05,0-.07,0-.03-.01-.05-.03-.07-.02-.01-.06-.02-.13-.02Z"/>
            <path class="st1" d="M13.78,22.82c-.07.1-.14.18-.2.23-.06.05-.12.08-.17.08-.03,0-.06,0-.08-.03-.02-.02-.03-.05-.03-.09,0-.03,0-.06.02-.12.01-.05.04-.14.07-.25-.1.17-.2.3-.28.37-.08.07-.17.11-.26.11-.07,0-.12-.02-.16-.07-.04-.05-.06-.12-.06-.21,0-.11.02-.22.06-.33.04-.11.1-.22.17-.31.08-.1.16-.18.24-.23s.17-.08.25-.08c.05,0,.09.01.13.04.03.02.05.06.06.1l.03-.11h.2l-.24.83s-.02.08-.03.11c0,.03,0,.05,0,.07,0,0,0,.02.01.02,0,0,.02.01.03.01.02,0,.04-.01.07-.04.03-.03.07-.07.12-.13l.04.03ZM13.37,21.96c-.06,0-.12.02-.17.07-.06.05-.11.11-.16.2-.05.1-.09.2-.13.3-.03.1-.05.2-.05.28,0,.05,0,.09.03.11.02.03.05.04.08.04.05,0,.1-.02.15-.07.05-.05.11-.12.17-.22.06-.1.11-.2.15-.3.03-.1.05-.19.05-.26,0-.05-.01-.09-.03-.12-.02-.03-.06-.04-.1-.04Z"/>
            <path class="st1" d="M14.49,22.81c-.07.1-.14.17-.21.22-.07.05-.13.08-.18.08-.04,0-.07-.01-.09-.03-.02-.02-.03-.05-.03-.09,0-.04.02-.13.06-.27v-.02s.33-1.21.33-1.21c0-.01,0-.03,0-.04,0-.01,0-.02,0-.03,0-.04-.01-.06-.03-.08-.02-.01-.06-.02-.13-.02v-.05c.12-.01.23-.03.35-.05.03,0,.05,0,.05,0,.01,0,.02,0,.02,0,0,0,0,0,0,.02,0,0,0,.01,0,.02,0,0,0,.02,0,.03l-.41,1.47s-.01.06-.02.08c0,.02,0,.04,0,.05,0,.02,0,.04.01.04,0,0,.02.01.03.01.03,0,.05-.01.08-.04.03-.03.07-.07.12-.14l.04.04Z"/>
            <path class="st1" d="M14.71,22v-.04c.13-.01.25-.03.37-.06.02,0,.04,0,.04,0,0,0,.02,0,.02,0,0,0,0,.01,0,.02,0,0,0,.01,0,.02,0,0,0,.02,0,.03l-.25.83s-.01.04-.02.06c0,.02,0,.03,0,.04,0,.02,0,.04.01.06,0,.01.02.02.04.02.03,0,.06-.02.1-.05.04-.03.08-.08.13-.15l.04.04c-.07.1-.14.18-.21.23-.07.05-.14.08-.2.08-.04,0-.07-.01-.09-.04-.02-.02-.03-.06-.03-.11,0-.02,0-.05,0-.08,0-.03.02-.08.03-.14l.17-.59h0s.02-.07.02-.09c0-.03-.01-.06-.04-.07-.02-.01-.07-.02-.13-.02ZM14.98,21.46s.01-.07.04-.09c.03-.03.06-.04.09-.04.04,0,.07.01.09.04.03.03.04.06.04.09s-.01.07-.04.09c-.03.03-.06.04-.1.04-.04,0-.07-.01-.09-.04-.03-.03-.04-.06-.04-.09Z"/>
            <path class="st1" d="M15.39,22.02v-.05c.09-.01.17-.05.24-.11.07-.06.14-.15.21-.26h.06l-.1.34h.22l-.02.08h-.22l-.2.77s-.01.05-.02.07c0,.02,0,.04,0,.05,0,.02,0,.03.01.04,0,.01.02.02.03.02.02,0,.05-.02.08-.05.03-.03.07-.08.12-.14l.04.04c-.07.1-.14.17-.2.22-.06.05-.13.07-.19.07-.04,0-.07-.01-.09-.03-.02-.02-.03-.05-.03-.1,0-.02,0-.04,0-.06,0-.02,0-.05.02-.07l.23-.84h-.18Z"/>
            <path class="st1" d="M16.34,23.12l-.14-.7s0,0,0-.01c-.05-.28-.14-.42-.26-.42v-.04c.07,0,.14-.02.21-.04.07-.02.11-.03.12-.03.02,0,.04.05.07.14.03.09.06.25.1.47l.07.39.15-.24c.08-.12.13-.22.16-.28.03-.07.05-.12.05-.15,0-.02,0-.03,0-.05,0-.01-.02-.03-.04-.05,0,0,0,0-.01,0-.04-.03-.06-.07-.06-.11,0-.03.01-.06.03-.08.02-.02.05-.03.08-.03.04,0,.07.01.1.04.02.03.04.07.04.12,0,.07-.02.16-.06.25-.04.09-.13.25-.27.48-.23.36-.4.6-.51.72-.11.12-.2.18-.29.18-.04,0-.07-.01-.09-.03-.02-.02-.04-.05-.04-.08,0-.03.01-.06.03-.07.02-.02.05-.03.08-.03.01,0,.04,0,.07.02.03.01.06.02.08.02.02,0,.04-.01.07-.04.03-.03.06-.06.1-.11l.18-.24Z"/>
            <path class="st1" d="M17.59,23.1v-.05h.03c.08,0,.14-.01.17-.04.04-.03.07-.09.09-.18l.32-1.2s.01-.05.02-.08c0-.02,0-.04,0-.06,0-.04-.01-.07-.04-.09-.03-.02-.08-.03-.15-.04v-.05h.71c.18,0,.32.03.41.1.09.07.14.17.14.3,0,.16-.07.29-.2.38-.13.1-.31.15-.52.15h-.24s-.02,0-.03,0c0,0-.01.01-.01.02l-.15.58s0,.02,0,.03c0,.01,0,.02,0,.03,0,.04.02.08.05.09s.09.03.18.03v.05h-.76ZM18.33,22.1s0,0,0,.01c0,0,0,.01,0,.02,0,.02,0,.03.02.03.01,0,.05,0,.11,0,.17,0,.3-.04.4-.12.09-.08.14-.2.14-.34,0-.1-.03-.18-.08-.23-.06-.05-.14-.08-.26-.08-.05,0-.09,0-.11.03-.02.02-.04.06-.06.13l-.15.56Z"/>
            <path class="st1" d="M19.22,23.1l.22-.79s.02-.08.03-.12.01-.06.01-.07c0-.03-.01-.06-.03-.07-.02-.01-.07-.02-.13-.02v-.05c.1-.01.23-.04.4-.07.01,0,.02,0,.02,0,0,0,0,0,0,.02,0,0,0,0,0,.02,0,0,0,.01,0,.02l-.13.46c.1-.17.19-.3.26-.39.07-.09.14-.13.19-.13.04,0,.06.01.08.03.02.02.03.05.03.09,0,.05-.01.08-.04.11-.03.03-.06.05-.1.05-.03,0-.06,0-.08-.03-.02-.02-.03-.04-.04-.08-.11.11-.2.25-.29.42-.08.17-.15.37-.2.59h-.21Z"/>
            <path class="st1" d="M20.11,22.71c0-.09.02-.17.05-.26.04-.09.09-.17.16-.25.08-.1.18-.17.28-.23.1-.05.2-.08.3-.08.13,0,.24.04.31.12.08.08.12.18.12.31,0,.08-.02.17-.05.26-.04.09-.09.17-.15.25-.08.1-.18.18-.28.23-.1.06-.21.08-.31.08-.13,0-.23-.04-.31-.12-.08-.08-.12-.18-.12-.31ZM20.89,21.95c-.06,0-.13.02-.19.07-.07.05-.13.12-.18.21-.05.08-.09.18-.12.28-.03.1-.05.19-.05.27s.02.16.06.2c.04.05.09.07.16.07.06,0,.11-.02.17-.05.06-.03.11-.08.15-.15.07-.09.12-.19.16-.31.04-.12.06-.22.06-.32,0-.09-.02-.16-.06-.21-.04-.05-.09-.07-.16-.07Z"/>
            <path class="st1" d="M22.25,22.67c-.1.16-.19.28-.27.36-.08.07-.17.11-.27.11-.08,0-.15-.03-.2-.08-.05-.06-.07-.13-.07-.23,0-.11.02-.23.07-.34.05-.11.12-.22.21-.31.08-.09.16-.15.25-.2.09-.05.17-.07.24-.07.05,0,.09,0,.12.02.03.01.06.04.07.06l.11-.42s0-.01,0-.02c.01-.04.02-.08.02-.1,0-.03,0-.04-.03-.06-.02-.01-.05-.02-.1-.02h-.04v-.05c.1,0,.19-.02.27-.04.09-.02.13-.03.13-.03,0,0,.01,0,.02,0,0,0,0,.01,0,.02,0,0,0,.01,0,.01,0,0,0,0,0,.01l-.4,1.5s-.02.06-.02.09c0,.02,0,.04,0,.06s0,.03.02.04c.01.01.03.02.04.02.02,0,.05-.01.08-.04.03-.03.08-.08.13-.15l.04.03c-.08.11-.15.19-.21.24-.06.05-.12.07-.17.07-.04,0-.07-.01-.1-.04-.02-.02-.03-.06-.03-.1,0-.03,0-.08.02-.13.01-.05.03-.12.05-.2ZM22.24,21.96c-.07,0-.13.02-.2.07-.06.05-.12.12-.18.21-.06.1-.11.21-.14.3-.03.1-.05.19-.05.26,0,.06.01.11.04.14.03.03.06.05.11.05.06,0,.11-.02.16-.07s.12-.13.19-.25c.06-.09.1-.19.13-.29.03-.1.05-.19.05-.26,0-.05-.01-.09-.03-.12-.02-.03-.05-.04-.1-.04Z"/>
            <path class="st1" d="M22.89,22v-.05c.12-.01.24-.03.35-.06.03,0,.05-.01.05-.01.01,0,.02,0,.03,0,0,0,0,0,0,.01,0,0,0,.02,0,.03,0,.01,0,.02,0,.04l-.2.71s-.02.09-.03.13c0,.04-.01.06-.01.08,0,.03,0,.05.02.06.01.02.03.02.06.02.05,0,.11-.03.18-.09.07-.06.15-.15.23-.28.07-.09.12-.2.17-.31.05-.11.09-.24.12-.37h.2l-.22.82s-.02.08-.02.11c0,.03,0,.05,0,.07,0,.02,0,.03.01.04,0,0,.02.01.04.01.03,0,.06-.02.09-.05.04-.03.08-.08.12-.15l.04.04c-.06.1-.13.18-.2.24-.07.05-.13.08-.2.08-.04,0-.07-.01-.1-.03-.02-.02-.03-.06-.03-.1,0-.03,0-.06,0-.09,0-.03.02-.07.03-.12l.08-.28c-.14.22-.26.37-.37.47-.11.1-.21.15-.3.15-.05,0-.09-.02-.12-.05-.03-.03-.04-.07-.04-.13,0-.03,0-.07.01-.11,0-.04.02-.1.05-.19l.12-.42s.01-.05.01-.08c0-.03,0-.05,0-.07,0-.03-.01-.05-.03-.07-.02-.01-.06-.02-.13-.02Z"/>
            <path class="st1" d="M25.16,22.83c-.09.1-.18.18-.27.23-.09.05-.18.07-.27.07-.12,0-.22-.04-.28-.12-.07-.08-.1-.19-.1-.33,0-.1.02-.19.06-.29.04-.09.1-.18.19-.27.08-.08.16-.14.24-.18.09-.04.18-.06.27-.06.08,0,.14.02.19.05.05.04.07.08.07.14,0,.05-.01.08-.03.11-.02.03-.05.04-.09.04-.03,0-.06,0-.08-.03-.02-.02-.03-.04-.03-.08,0-.03.01-.05.03-.08.02-.03.03-.04.03-.05,0,0,0-.02-.03-.02-.02,0-.04-.01-.06-.01-.06,0-.11.01-.16.04-.05.03-.1.07-.15.12-.07.08-.12.16-.16.27-.04.1-.06.2-.06.31s.02.18.07.24c.04.06.1.09.18.09.07,0,.13-.02.2-.06.07-.04.14-.1.21-.17l.04.04Z"/>
            <path class="st1" d="M25.46,22.02v-.05c.09-.01.17-.05.24-.11.07-.06.14-.15.21-.26h.06l-.1.34h.22l-.02.08h-.22l-.2.77s-.01.05-.02.07c0,.02,0,.04,0,.05,0,.02,0,.03.01.04,0,.01.02.02.03.02.02,0,.05-.02.08-.05.03-.03.07-.08.12-.14l.04.04c-.07.1-.14.17-.2.22-.06.05-.13.07-.19.07-.04,0-.07-.01-.09-.03-.02-.02-.03-.05-.03-.1,0-.02,0-.04,0-.06,0-.02,0-.05.02-.07l.23-.84h-.18Z"/>
            <path class="st1" d="M26.02,23.12l.06-.42h.04c0,.12.03.21.08.27.05.06.11.1.18.1.06,0,.11-.02.15-.06.04-.04.06-.1.06-.16,0-.06-.04-.14-.12-.25-.01-.01-.02-.02-.02-.03,0,0-.02-.02-.03-.04-.11-.14-.16-.25-.16-.33s.03-.16.09-.22c.06-.06.14-.09.23-.09.05,0,.1,0,.16.03.06.02.1.03.11.03.02,0,.03,0,.04-.01.01,0,.02-.02.02-.03h.04l-.05.38h-.04c-.01-.11-.04-.19-.08-.25-.04-.05-.1-.08-.17-.08-.04,0-.08.01-.11.04-.03.03-.04.06-.04.1,0,.06.04.14.12.24,0,.01.02.02.02.03.01.01.03.03.05.06.1.13.16.24.16.33,0,.1-.04.19-.11.26-.07.07-.17.11-.28.11-.06,0-.11,0-.17-.03-.06-.02-.09-.03-.1-.03-.02,0-.03,0-.04,0,0,0-.02.02-.02.03h-.05Z"/>
          </g>
          <g>
            <g>
              <path class="st0" d="M29.36,10.87c-.56-.58-1.53-.87-2.91-.87h-3.89l-.34,2.75h3.77c.31,0,.54.07.7.22.14.14.2.34.17.61-.03.25-.14.46-.32.59-.17.14-.42.2-.73.2h-3.79s-.66,5.51-.66,5.51h3.25l.36-2.92h1.04c1.24,0,2.17-.27,2.8-.82.65-.53,1.04-1.38,1.17-2.55.15-1.26-.05-2.17-.61-2.74Z"/>
              <path class="st0" d="M11.24,9.75c-.7,0-1.34.14-1.97.37-.61.25-1.19.63-1.7,1.1-.46.46-.85.95-1.14,1.53h6.56l.32-2.5c-.32-.17-.66-.31-1-.37-.36-.08-.71-.14-1.07-.14Z"/>
              <path class="st0" d="M10.54,16.89c-.53,0-.92-.17-1.19-.53-.26-.34-.36-.82-.29-1.39.03-.2.07-.39.12-.58h-3.35c-.03.19-.07.37-.08.58-.12,1-.03,1.89.29,2.65.31.78.83,1.41,1.58,1.92.31.2.66.36,1.05.46.39.12.81.17,1.26.17.34,0,.7-.05,1.07-.12.36-.09.73-.2,1.1-.36l.56-3.72c-.43.32-.8.56-1.14.7-.34.15-.68.22-.99.22Z"/>
              <polygon class="st0" points="14.09 12.76 20.98 12.76 21.32 10.01 14.43 10.01 14.09 12.76"/>
              <polygon class="st0" points="15.03 19.9 18.29 19.9 18.96 14.39 15.71 14.39 15.03 19.9"/>
            </g>
            <path class="st0" d="M27.89,18.18c.15,0,.28.04.43.12.15.07.25.18.32.32.09.13.12.28.12.44,0,.15-.03.29-.1.44-.09.13-.19.25-.34.32-.13.07-.28.12-.43.12h0v-.15h0c.12,0,.23-.03.35-.1.12-.06.22-.15.28-.26.06-.12.09-.24.09-.37s-.03-.25-.09-.37c-.07-.12-.16-.21-.28-.28-.12-.06-.23-.09-.35-.09h0v-.15h0ZM27.89,19.2s.07.1.13.21l.09.15h.18l-.1-.19c-.06-.09-.1-.15-.15-.18-.01-.03-.04-.04-.07-.06.07,0,.15-.03.19-.09.04-.04.07-.1.07-.18,0-.04-.01-.09-.04-.13-.03-.04-.07-.09-.12-.1-.04-.02-.1-.02-.18-.02v.12s.07.01.09.01c.03.01.04.03.06.06.01.01.03.04.03.07,0,.04-.01.07-.04.1-.03.01-.07.03-.13.04v.18ZM27.89,19.95c-.16,0-.31-.04-.44-.12-.15-.07-.25-.19-.32-.32-.09-.15-.12-.29-.12-.44,0-.16.03-.31.12-.44.07-.15.19-.25.32-.32.15-.07.28-.12.44-.12v.15c-.13,0-.25.03-.37.09-.12.07-.21.16-.28.28-.06.12-.09.23-.09.37s.03.25.09.37c.07.12.16.21.28.26.12.07.24.1.37.1v.15h0ZM27.89,18.61h-.4v.94h.16v-.4h.09s.09,0,.12.03c.02,0,.02.01.03.01v-.18h-.23v-.29h.23v-.12Z"/>
          </g>
        </g>
        <g>
          <path d="M37.36,10.92c0-.83.11-1.42.33-1.78.22-.36.59-.54,1.09-.54s.87.18,1.09.54c.22.36.33.96.33,1.79s-.11,1.43-.33,1.79c-.22.36-.58.54-1.09.54s-.86-.18-1.08-.55c-.22-.36-.34-.96-.34-1.78ZM37.87,10.92c0,.71.07,1.21.2,1.48.13.27.37.41.7.41s.57-.13.71-.4c.13-.27.2-.76.2-1.49s-.07-1.22-.2-1.48c-.13-.27-.37-.4-.71-.4s-.57.14-.7.41c-.14.27-.2.76-.2,1.47Z"/>
          <path d="M40.99,13.14v-4.44h1.25c.46,0,.8.09,1.02.28s.33.47.33.86c0,.3-.07.54-.2.71-.13.18-.34.3-.62.37.25.02.43.1.55.24.12.14.2.35.22.64,0,.11.02.26.03.45.03.48.11.78.23.88h-.61c-.06-.1-.1-.34-.12-.72,0-.19-.02-.34-.03-.45-.03-.31-.11-.51-.24-.63s-.37-.17-.71-.17h-.63v1.97h-.48ZM41.48,10.74h.6c.35,0,.6-.07.76-.2.16-.13.24-.34.24-.62s-.07-.47-.22-.59c-.14-.12-.38-.18-.7-.18h-.7v1.6Z"/>
          <path d="M46.88,13.14l-.03-.61c-.08.23-.21.41-.38.54s-.39.19-.64.19c-.48,0-.83-.19-1.06-.57-.23-.38-.34-.98-.34-1.78s.12-1.39.36-1.75.62-.54,1.14-.54c.4,0,.72.12.94.36.23.24.34.58.34,1.01h-.49c0-.3-.09-.54-.23-.7-.14-.17-.34-.25-.59-.25-.34,0-.59.15-.74.45-.15.3-.22.82-.22,1.56,0,.59.08,1.03.23,1.32s.39.43.71.43c.29,0,.51-.11.66-.33.15-.22.23-.55.23-.97,0-.05,0-.09,0-.12,0-.03,0-.05,0-.08h-1.01v-.45h1.48v2.31h-.38Z"/>
          <path d="M48.12,8.7h.5v2.99c0,.42.06.7.18.87.12.16.32.24.6.24s.5-.09.64-.27c.14-.18.2-.46.2-.84v-2.99h.48v2.9c0,.38-.02.64-.06.79-.04.16-.11.29-.21.41-.12.14-.27.25-.45.33-.18.07-.38.11-.61.11s-.44-.04-.63-.12c-.18-.08-.33-.19-.44-.34-.08-.1-.13-.23-.16-.38-.03-.16-.05-.42-.05-.8v-2.9Z"/>
          <path d="M51.61,13.14v-4.44h.5v3.96h1.77v.48h-2.27Z"/>
          <path d="M54.5,13.14v-4.44h.5v3.96h1.77v.48h-2.27Z"/>
          <path d="M56.99,10.92c0-.83.11-1.42.33-1.78.22-.36.59-.54,1.09-.54s.87.18,1.09.54c.22.36.33.96.33,1.79s-.11,1.43-.33,1.79c-.22.36-.58.54-1.09.54s-.86-.18-1.08-.55c-.22-.36-.34-.96-.34-1.78ZM57.51,10.92c0,.71.07,1.21.2,1.48.13.27.37.41.7.41s.57-.13.71-.4c.13-.27.2-.76.2-1.49s-.07-1.22-.2-1.48c-.13-.27-.37-.4-.71-.4s-.57.14-.7.41c-.14.27-.2.76-.2,1.47Z"/>
          <path d="M60.53,11.73h.47v.16c0,.3.07.53.21.68.14.15.34.23.62.23.25,0,.44-.07.58-.22.14-.15.21-.35.21-.61,0-.21-.04-.37-.13-.48-.08-.11-.28-.22-.58-.34-.07-.03-.17-.06-.3-.11-.36-.13-.58-.23-.65-.29-.12-.11-.21-.24-.28-.39-.06-.15-.09-.33-.09-.53,0-.39.11-.69.32-.91.21-.22.51-.33.89-.33s.64.1.85.3c.21.2.31.48.31.84,0,.01,0,.03,0,.06,0,.03,0,.04,0,.06h-.46v-.05c0-.25-.06-.44-.18-.58s-.29-.2-.52-.2-.41.06-.54.19c-.13.13-.2.3-.2.53,0,.21.04.37.14.49.09.12.29.23.59.34.04.01.09.03.16.06.46.17.74.3.83.38.11.1.19.23.24.37.05.15.08.32.08.52,0,.42-.12.75-.35.98s-.56.35-.97.35-.73-.12-.94-.35c-.21-.23-.32-.57-.32-1.02,0-.01,0-.04,0-.07,0-.03,0-.06,0-.07Z"/>
          <path d="M63.79,10.92c0-.83.11-1.42.33-1.78.22-.36.59-.54,1.09-.54s.87.18,1.09.54c.22.36.33.96.33,1.79s-.11,1.43-.33,1.79c-.22.36-.58.54-1.09.54s-.86-.18-1.08-.55c-.22-.36-.34-.96-.34-1.78ZM64.31,10.92c0,.71.07,1.21.2,1.48.13.27.37.41.7.41s.57-.13.71-.4c.13-.27.2-.76.2-1.49s-.07-1.22-.2-1.48c-.13-.27-.37-.4-.71-.4s-.57.14-.7.41c-.14.27-.2.76-.2,1.47Z"/>
          <path d="M67.33,11.73h.47v.16c0,.3.07.53.21.68.14.15.34.23.62.23.25,0,.44-.07.58-.22.14-.15.21-.35.21-.61,0-.21-.04-.37-.13-.48-.08-.11-.28-.22-.58-.34-.07-.03-.17-.06-.3-.11-.36-.13-.58-.23-.65-.29-.12-.11-.21-.24-.28-.39-.06-.15-.09-.33-.09-.53,0-.39.11-.69.32-.91.21-.22.51-.33.89-.33s.64.1.85.3c.21.2.31.48.31.84,0,.01,0,.03,0,.06,0,.03,0,.04,0,.06h-.46v-.05c0-.25-.06-.44-.18-.58s-.29-.2-.52-.2-.41.06-.54.19c-.13.13-.2.3-.2.53,0,.21.04.37.14.49.09.12.29.23.59.34.04.01.09.03.16.06.46.17.74.3.83.38.11.1.19.23.24.37.05.15.08.32.08.52,0,.42-.12.75-.35.98s-.56.35-.97.35-.73-.12-.94-.35c-.21-.23-.32-.57-.32-1.02,0-.01,0-.04,0-.07,0-.03,0-.06,0-.07Z"/>
          <path d="M72.24,13.14v-4.44h1.26c.5,0,.87.17,1.11.5.24.34.36.86.36,1.57,0,.5-.04.91-.12,1.24-.08.32-.21.58-.38.77-.12.13-.25.22-.4.28-.15.05-.37.08-.67.08h-1.15ZM72.73,12.72h.64c.21,0,.37-.02.48-.06.11-.04.2-.11.27-.2.1-.15.18-.34.22-.57.05-.23.07-.54.07-.95,0-.72-.07-1.2-.22-1.44-.15-.24-.43-.36-.84-.36h-.62v3.58Z"/>
          <path d="M75.76,13.14v-4.44h2.2v.46h-1.71v1.43h1.6v.45h-1.6v1.63h1.73v.47h-2.22Z"/>
          <path d="M80.21,11.73h.47v.16c0,.3.07.53.21.68.14.15.34.23.62.23.25,0,.44-.07.58-.22.14-.15.21-.35.21-.61,0-.21-.04-.37-.13-.48-.08-.11-.28-.22-.58-.34-.07-.03-.17-.06-.3-.11-.36-.13-.58-.23-.65-.29-.12-.11-.21-.24-.28-.39-.06-.15-.09-.33-.09-.53,0-.39.11-.69.32-.91.21-.22.51-.33.89-.33s.64.1.85.3c.21.2.31.48.31.84,0,.01,0,.03,0,.06,0,.03,0,.04,0,.06h-.46v-.05c0-.25-.06-.44-.18-.58s-.29-.2-.52-.2-.41.06-.54.19c-.13.13-.2.3-.2.53,0,.21.04.37.14.49.09.12.29.23.59.34.04.01.09.03.16.06.46.17.74.3.83.38.11.1.19.23.24.37.05.15.08.32.08.52,0,.42-.12.75-.35.98s-.56.35-.97.35-.73-.12-.94-.35c-.21-.23-.32-.57-.32-1.02,0-.01,0-.04,0-.07,0-.03,0-.06,0-.07Z"/>
          <path d="M83.56,13.14v-4.44h2.2v.46h-1.71v1.43h1.6v.45h-1.6v1.63h1.73v.47h-2.22Z"/>
          <path d="M86.54,13.14v-4.44h1.25c.46,0,.8.09,1.02.28s.33.47.33.86c0,.3-.07.54-.2.71-.13.18-.34.3-.62.37.25.02.43.1.55.24.12.14.2.35.22.64,0,.11.02.26.03.45.03.48.11.78.23.88h-.61c-.06-.1-.1-.34-.12-.72,0-.19-.02-.34-.03-.45-.03-.31-.11-.51-.24-.63s-.37-.17-.71-.17h-.63v1.97h-.48ZM87.02,10.74h.6c.35,0,.6-.07.76-.2.16-.13.24-.34.24-.62s-.07-.47-.22-.59c-.14-.12-.38-.18-.7-.18h-.7v1.6Z"/>
          <path d="M91.64,8.7h.5v2.99c0,.42.06.7.18.87.12.16.32.24.6.24s.5-.09.64-.27c.14-.18.2-.46.2-.84v-2.99h.48v2.9c0,.38-.02.64-.06.79-.04.16-.11.29-.21.41-.12.14-.27.25-.45.33-.18.07-.38.11-.61.11s-.44-.04-.63-.12c-.18-.08-.33-.19-.44-.34-.08-.1-.13-.23-.16-.38-.03-.16-.05-.42-.05-.8v-2.9Z"/>
          <path d="M95.12,13.14v-4.44h.66l1.54,3.81-.05-3.81h.48v4.44h-.63l-1.56-3.92.04,3.92h-.48Z"/>
        </g>
        <g>
          <path d="M37.05,23.35v-7.57h2.27c.46,0,.83.04,1.1.12.27.08.5.21.68.38.27.26.45.59.56.98.11.4.17,1.01.17,1.84,0,1.08-.04,1.83-.11,2.28-.08.44-.2.82-.38,1.13-.17.31-.42.53-.73.65-.31.12-.85.18-1.61.18h-1.94ZM38.43,22.23h.62c.32,0,.54-.02.67-.07s.23-.12.3-.24c.13-.2.22-.47.28-.81.06-.34.08-.89.08-1.65s-.03-1.27-.1-1.6-.18-.59-.33-.76c-.08-.09-.19-.15-.32-.18-.13-.03-.33-.05-.61-.05h-.61v5.35Z"/>
          <path d="M43.12,23.35v-7.57h1.41v7.57h-1.41Z"/>
          <path d="M45.83,20.69h1.41v.49c0,.46.06.78.17.95s.32.25.6.25.53-.08.68-.23c.16-.15.23-.37.23-.67,0-.23-.05-.42-.16-.58-.11-.16-.34-.37-.7-.63l-.72-.51c-.62-.43-1.02-.79-1.19-1.07s-.25-.64-.25-1.06c0-.64.19-1.13.57-1.49.38-.36.9-.54,1.56-.54.7,0,1.24.19,1.61.58.37.38.56.93.56,1.65,0,.07,0,.13,0,.17s0,.07,0,.1h-1.34v-.2c0-.41-.07-.7-.2-.88-.13-.18-.36-.27-.66-.27-.23,0-.4.07-.53.2-.13.13-.19.32-.19.55,0,.32.29.67.87,1.06,0,0,.01,0,.01,0l.78.53c.55.37.93.71,1.13,1.04.2.33.29.74.29,1.25,0,.69-.2,1.22-.59,1.59-.39.37-.96.56-1.69.56s-1.33-.2-1.7-.59-.56-.99-.56-1.8c0-.08,0-.23.02-.42v-.03Z"/>
          <path d="M52.72,23.35v-6.32h-1.62v-1.25h4.66v1.25h-1.62v6.32h-1.41Z"/>
          <path d="M56.65,23.35v-7.57h2.53c.76,0,1.31.16,1.65.46s.5.82.5,1.52c0,.49-.09.88-.27,1.16s-.45.45-.8.5c.67.18,1.02.74,1.05,1.7v.1l.04,1c.01.29.05.51.11.69.06.17.15.32.28.45h-1.67c-.04-.13-.07-.28-.09-.45-.02-.17-.03-.42-.04-.73l-.02-.79v-.2c0-.44-.09-.74-.28-.91s-.57-.25-1.14-.25h-.48v3.32h-1.36ZM58.01,18.97h.81c.41,0,.69-.08.85-.25.16-.16.24-.46.24-.88,0-.38-.09-.64-.26-.79-.17-.15-.49-.23-.95-.23h-.69v2.14Z"/>
          <path d="M62.61,23.35v-7.57h1.41v7.57h-1.41Z"/>
          <path d="M65.46,23.35v-7.57h2.27c.65,0,1.13.15,1.45.45.32.3.47.77.47,1.39,0,.5-.08.89-.23,1.17-.16.27-.39.44-.7.5.35.05.63.23.83.53.2.3.3.7.3,1.2,0,.8-.17,1.39-.5,1.77s-.86.57-1.57.57h-2.31ZM66.83,18.85h.47c.35,0,.6-.08.73-.23.13-.15.2-.44.2-.85,0-.37-.07-.62-.2-.76s-.39-.2-.77-.2h-.43v2.05ZM66.83,22.27h.58c.36,0,.62-.09.77-.27s.22-.49.22-.93-.08-.78-.24-.95c-.16-.17-.46-.26-.91-.26h-.42v2.41Z"/>
          <path d="M71.1,15.77h1.41v5.1c0,.58.07.98.21,1.19.14.21.4.31.76.31s.61-.1.75-.31c.14-.21.21-.61.21-1.21v-5.08h1.39v5.23c0,.51-.03.88-.09,1.11s-.15.44-.29.62c-.2.27-.47.46-.81.6s-.73.2-1.19.2c-.87,0-1.48-.19-1.83-.56-.36-.38-.53-1.03-.53-1.96v-5.23Z"/>
          <path d="M77.26,23.35v-7.57h1.41v7.57h-1.41Z"/>
          <path d="M80.11,23.35v-7.57h2.27c.46,0,.83.04,1.1.12.27.08.5.21.68.38.27.26.45.59.56.98.11.4.17,1.01.17,1.84,0,1.08-.04,1.83-.11,2.28-.08.44-.2.82-.38,1.13-.17.31-.42.53-.73.65-.31.12-.85.18-1.61.18h-1.94ZM81.49,22.23h.62c.32,0,.54-.02.67-.07s.23-.12.3-.24c.13-.2.22-.47.28-.81.06-.34.08-.89.08-1.65s-.03-1.27-.1-1.6-.18-.59-.33-.76c-.08-.09-.19-.15-.32-.18-.13-.03-.33-.05-.61-.05h-.61v5.35Z"/>
          <path d="M86.03,19.56c0-.8.04-1.44.11-1.92s.19-.84.35-1.08c.22-.34.48-.59.79-.74s.71-.22,1.2-.22.9.07,1.2.22.57.39.79.74c.16.25.28.61.35,1.09.07.48.11,1.12.11,1.92s-.04,1.43-.11,1.92-.19.84-.35,1.09c-.22.34-.49.59-.79.74s-.71.22-1.2.22-.9-.07-1.2-.22-.57-.39-.79-.74c-.16-.24-.28-.6-.35-1.08-.08-.48-.11-1.12-.11-1.92ZM87.47,19.56c0,1.25.07,2.03.22,2.35.15.32.42.48.81.48s.65-.16.79-.47c.14-.32.21-1.1.21-2.36s-.07-2.05-.22-2.37-.41-.48-.8-.48-.66.16-.8.48c-.14.32-.22,1.11-.22,2.37Z"/>
          <path d="M92.24,23.35v-7.57h2.53c.76,0,1.31.16,1.65.46s.5.82.5,1.52c0,.49-.09.88-.27,1.16s-.45.45-.8.5c.67.18,1.02.74,1.05,1.7v.1l.04,1c.01.29.05.51.11.69.06.17.15.32.28.45h-1.67c-.04-.13-.07-.28-.09-.45-.02-.17-.03-.42-.04-.73l-.02-.79v-.2c0-.44-.09-.74-.28-.91s-.57-.25-1.14-.25h-.48v3.32h-1.36ZM93.61,18.97h.81c.41,0,.69-.08.85-.25.16-.16.24-.46.24-.88,0-.38-.09-.64-.26-.79-.17-.15-.49-.23-.95-.23h-.69v2.14Z"/>
          <path d="M100.32,23.35l1.71-7.57h1.89l1.72,7.57h-1.52l-.37-1.9h-1.62l-.36,1.9h-1.44ZM102.35,20.31h1.2l-.61-3.18-.59,3.18Z"/>
          <path d="M106.54,15.77h1.41v5.1c0,.58.07.98.21,1.19.14.21.4.31.76.31s.61-.1.75-.31c.14-.21.21-.61.21-1.21v-5.08h1.39v5.23c0,.51-.03.88-.09,1.11s-.15.44-.29.62c-.2.27-.47.46-.81.6s-.73.2-1.19.2c-.87,0-1.48-.19-1.83-.56-.36-.38-.53-1.03-.53-1.96v-5.23Z"/>
          <path d="M113.78,23.35v-6.32h-1.62v-1.25h4.66v1.25h-1.62v6.32h-1.41Z"/>
          <path d="M117.55,19.56c0-.8.04-1.44.11-1.92s.19-.84.35-1.08c.22-.34.48-.59.79-.74s.71-.22,1.2-.22.9.07,1.2.22.57.39.79.74c.16.25.28.61.35,1.09.07.48.11,1.12.11,1.92s-.04,1.43-.11,1.92-.19.84-.35,1.09c-.22.34-.49.59-.79.74s-.71.22-1.2.22-.9-.07-1.2-.22-.57-.39-.79-.74c-.16-.24-.28-.6-.35-1.08-.08-.48-.11-1.12-.11-1.92ZM118.99,19.56c0,1.25.07,2.03.22,2.35.15.32.42.48.81.48s.65-.16.79-.47c.14-.32.21-1.1.21-2.36s-.07-2.05-.22-2.37-.41-.48-.8-.48-.66.16-.8.48c-.14.32-.22,1.11-.22,2.37Z"/>
          <path d="M123.76,23.35v-7.57h2.53c.76,0,1.31.16,1.65.46s.5.82.5,1.52c0,.49-.09.88-.27,1.16s-.45.45-.8.5c.67.18,1.02.74,1.05,1.7v.1l.04,1c.01.29.05.51.11.69.06.17.15.32.28.45h-1.67c-.04-.13-.07-.28-.09-.45-.02-.17-.03-.42-.04-.73l-.02-.79v-.2c0-.44-.09-.74-.28-.91s-.57-.25-1.14-.25h-.48v3.32h-1.36ZM125.13,18.97h.81c.41,0,.69-.08.85-.25.16-.16.24-.46.24-.88,0-.38-.09-.64-.26-.79-.17-.15-.49-.23-.95-.23h-.69v2.14Z"/>
          <path d="M129.73,23.35v-7.57h1.41v7.57h-1.41Z"/>
          <path d="M132.23,23.35v-1.28l2.66-5.11h-2.53v-1.18h4.03v1.17l-2.63,5.13h2.74v1.28h-4.27Z"/>
          <path d="M137.05,23.35l1.71-7.57h1.89l1.72,7.57h-1.52l-.37-1.9h-1.62l-.36,1.9h-1.44ZM139.07,20.31h1.2l-.61-3.18-.59,3.18Z"/>
          <path d="M143.26,23.35v-7.57h2.27c.46,0,.83.04,1.1.12.27.08.5.21.68.38.27.26.45.59.56.98.11.4.17,1.01.17,1.84,0,1.08-.04,1.83-.11,2.28-.08.44-.2.82-.38,1.13-.17.31-.42.53-.73.65-.31.12-.85.18-1.61.18h-1.94ZM144.64,22.23h.62c.32,0,.54-.02.67-.07s.23-.12.3-.24c.13-.2.22-.47.28-.81.06-.34.08-.89.08-1.65s-.03-1.27-.1-1.6-.18-.59-.33-.76c-.08-.09-.19-.15-.32-.18-.13-.03-.33-.05-.61-.05h-.61v5.35Z"/>
          <path d="M149.18,19.56c0-.8.04-1.44.11-1.92s.19-.84.35-1.08c.22-.34.48-.59.79-.74s.71-.22,1.2-.22.9.07,1.2.22.57.39.79.74c.16.25.28.61.35,1.09.07.48.11,1.12.11,1.92s-.04,1.43-.11,1.92-.19.84-.35,1.09c-.22.34-.49.59-.79.74s-.71.22-1.2.22-.9-.07-1.2-.22-.57-.39-.79-.74c-.16-.24-.28-.6-.35-1.08-.08-.48-.11-1.12-.11-1.92ZM150.62,19.56c0,1.25.07,2.03.22,2.35.15.32.42.48.81.48s.65-.16.79-.47c.14-.32.21-1.1.21-2.36s-.07-2.05-.22-2.37-.41-.48-.8-.48-.66.16-.8.48c-.14.32-.22,1.11-.22,2.37Z"/>
          <path d="M161.07,20.65h1.37s0,.08,0,.14c0,.06,0,.11,0,.15,0,.88-.18,1.53-.55,1.95-.37.42-.93.64-1.69.64-.36,0-.67-.05-.93-.14-.26-.09-.48-.24-.67-.44-.25-.26-.44-.62-.54-1.08-.11-.46-.16-1.26-.16-2.4,0-.78.03-1.4.09-1.86.06-.46.16-.8.29-1.03.2-.35.46-.6.76-.75.3-.16.69-.23,1.16-.23.77,0,1.33.2,1.67.6.35.4.53,1.04.53,1.93h-1.37v-.18c0-.41-.07-.71-.2-.92-.13-.2-.33-.3-.61-.3-.34,0-.57.14-.69.42s-.18,1.05-.18,2.31c0,1.36.06,2.19.18,2.49.12.29.35.44.69.44.31,0,.53-.12.66-.35.12-.23.19-.66.19-1.28v-.1Z"/>
          <path d="M164.81,23.35v-6.32h-1.62v-1.25h4.66v1.25h-1.62v6.32h-1.41Z"/>
          <path d="M168.73,23.35v-7.57h2.45c.75,0,1.29.17,1.61.5.33.33.49.88.49,1.64s-.17,1.3-.52,1.67c-.35.37-.88.55-1.6.55h-1.03v3.21h-1.4ZM170.09,19.09h.59c.44,0,.75-.09.92-.26.18-.17.27-.47.27-.88s-.08-.71-.24-.87-.47-.24-.93-.24h-.61v2.26Z"/>
        </g>
      </g>
    </g>
  </g>
</svg>